PathFileType	4	(X/Y/Z)	60_1_21_p0_0-317_filt_butterworth.trc
DataRate	CameraRate	NumFrames	NumMarkers	Units	OrigDataRate	OrigDataStartFrame	OrigNumFrames
45.0	45.0	4	27	m	45.0	0	317
Frame#	Time	RHip			RKnee			RAnkle			RBigToe			RSmallToe			RHeel			LHip			LKnee			LAnkle			LBigToe			LSmallToe			LHeel			Neck			Head			Nose			RShoulder			RElbow			RWrist			RThumb			RIndex			RPinky			LShoulder			LElbow			LWrist			LThumb			LIndex			LPinky			
		X1	Y1	Z1	X2	Y2	Z2	X3	Y3	Z3	X4	Y4	Z4	X5	Y5	Z5	X6	Y6	Z6	X7	Y7	Z7	X8	Y8	Z8	X9	Y9	Z9	X10	Y10	Z10	X11	Y11	Z11	X12	Y12	Z12	X13	Y13	Z13	X14	Y14	Z14	X15	Y15	Z15	X16	Y16	Z16	X17	Y17	Z17	X18	Y18	Z18	X19	Y19	Z19	X20	Y20	Z20	X21	Y21	Z21	X22	Y22	Z22	X23	Y23	Z23	X24	Y24	Z24	X25	Y25	Z25	X26	Y26	Z26	X27	Y27	Z27	
0	0.0	0.3283982406339443	0.5133362963580607	-0.17653023580166763	0.3005537055641755	0.6778996854485273	0.23634478565772832	0.289050533790923	0.8073316595676291	0.6059514830618237	0.26352639738947636	0.5835572470954536	0.6601921443583625	0.3265316149631804	0.649065710599815	0.6640498162470162	0.2708783883022621	0.8878403545448526	0.6595867931032284	0.11705568846328569	0.517253269232899	-0.18704933937770638	0.11208284710624568	0.6625435278701542	0.2115550599556634	0.12293797722939664	0.8077279565388189	0.5881708632502893	0.11232250909885742	0.6033682054735174	0.6613663413995536	0.06695262922433051	0.6783459589735946	0.6568411025909137	0.14282388742003557	0.8740963081749443	0.634380286562723	0.23655778358093588	0.29848658419546803	-0.7422409074312504	0.2459060968032398	0.1752441910442922	-0.9576403885297784	0.24103632816873183	0.1505071200885881	-0.8237571364530218	0.4193856853358853	0.3407086755696854	-0.6585808151071444	0.4852521662331932	0.3758751144021437	-0.3988538537826182	0.3316350179141555	0.2990187681416032	-0.22188614029373066	0.1993432542809862	0.2968244114274032	-0.20741525173311876	0.1871636714618446	0.3311788823218448	-0.17537508596864515	0.21410023194385555	0.32664043487800276	-0.11793883470312898	0.07353197602861941	0.31620405829253284	-0.6748918391322865	0.00013380667805983895	0.4111832814381565	-0.430138118533088	0.12456646481591122	0.28895098365680366	-0.24397820544195126	0.20433733395140058	0.2671830627662362	-0.20637891327397542	0.208151105664255	0.27645772627767834	-0.18143078610395752	0.20750520068081718	0.31845651278628595	-0.12998199986221765
1	0.0222222222222222	0.33005425934094695	0.5134517868111608	-0.17839737594989405	0.3006670758836041	0.6779679311264013	0.2381168264759792	0.2857948142601672	0.8176137281358291	0.6018251074266499	0.26315995526905617	0.5810914476707445	0.6568512483842418	0.328355830769621	0.6440178693515406	0.6624750175647414	0.2746536591063082	0.8990545661664862	0.6579586582590136	0.1165753101854638	0.5179500362722665	-0.18631834758566937	0.11756933690225252	0.6578498413609309	0.2138064114812657	0.12458453162116863	0.8101073082809963	0.5895210906451821	0.11228390694568974	0.6034824398826841	0.6615289599436985	0.06767502164249486	0.6786319183087267	0.6551291244087033	0.14376189652111349	0.8787760024306734	0.6341282224819988	0.23653194019478327	0.2986368240313761	-0.7410601310779165	0.24592169819933482	0.17521227380257104	-0.9576692834718076	0.24261946992605132	0.15163473324453133	-0.8227653821409703	0.4193221096683655	0.3407413837028213	-0.658494764507255	0.4878489375542906	0.3730853818543593	-0.4054668894454679	0.3341635730013046	0.30769612469537094	-0.22354976166862536	0.2023847885165979	0.2892037810463387	-0.20370452859200494	0.19014254200840672	0.3254507684626695	-0.16744741149686732	0.2147995107663519	0.3301885754133219	-0.11882817121797748	0.07371716416149761	0.3169919236927592	-0.6749058877425357	0.00022136480302236005	0.4123470739526893	-0.4288822405017195	0.11953450018408196	0.28927936059231446	-0.24125894036084727	0.2062269791017236	0.2682654171332227	-0.20576321343474782	0.2089078338441825	0.27602293682693757	-0.18061614199260698	0.20501696359989746	0.3155227835114981	-0.126346213519349
2	0.0444444444444444	0.33149978431902916	0.5129198716036852	-0.18102144317582103	0.3028502462217724	0.6782678357063033	0.23612536647263047	0.2843517277922424	0.8227892045088873	0.6003348026879338	0.2628969009184041	0.5793497861852727	0.6551673839192238	0.32968728905906475	0.644771485208679	0.6624896230933655	0.2766189962916801	0.9049798739467604	0.6585530615109796	0.11603145744746883	0.5165779655679792	-0.18890345689049873	0.1198048169795696	0.6591833332349503	0.21470096790832172	0.12514135022120185	0.8117900561768243	0.5912117159804029	0.11234536600821222	0.6036700226077882	0.6615777327204209	0.06922552117434458	0.6791085791731195	0.6552627724117404	0.1442721847874281	0.8810497527303118	0.6340784934125746	0.23649522105459775	0.2987880083516479	-0.7396610458700426	0.2459061703171189	0.17483254883562546	-0.9586508493210096	0.2433450941496786	0.15143591652296015	-0.82296124805986	0.41932091715834874	0.3406922275820798	-0.6584786736101658	0.48952782038527975	0.372031271072623	-0.4102580721642889	0.3368590409176482	0.3115074408068816	-0.22624289990995722	0.20381197352610558	0.2863186881109798	-0.20129253230393995	0.1930907281346081	0.31862360769420883	-0.16336577811074682	0.21546638337633017	0.3341382562670795	-0.12241314944122886	0.07360923830304347	0.31673250625928195	-0.6741374026720862	-0.0011837747839177526	0.4158471405438896	-0.4305197909962033	0.11560075818786439	0.2883957802870099	-0.24140528406848316	0.20618807515435728	0.2725890103319152	-0.2055352240941016	0.20913720261575836	0.27723045153253084	-0.17989189826664545	0.20271670434493622	0.3178699448758475	-0.12519524977190882
3	0.0666666666666666	0.33089136770828886	0.5119729001263804	-0.18151433881207757	0.30637625204986435	0.6771504424221202	0.23228951360025257	0.2844722362519726	0.824433316086085	0.6018504612897086	0.26270013725183794	0.5782802555810056	0.6548739795812932	0.33030565633813913	0.6496953751829319	0.6636945951413586	0.2770574401431317	0.9063932573524087	0.660731901937828	0.11572923838901028	0.5145842111179632	-0.19152693647759106	0.11932752385362641	0.662884185935005	0.21439312030490282	0.1250015245283326	0.8124886652242848	0.5923079403399103	0.11247879796565252	0.6038773866713474	0.6615216083169357	0.07189332334975868	0.6793183789991886	0.6560786050651864	0.14457153314140458	0.8819567398537634	0.6341634076164582	0.23647725704133932	0.2988471173331961	-0.7387602442508476	0.24586727749578458	0.17425779337467812	-0.9602503519142243	0.24397269118298362	0.15104269190556038	-0.823777921744439	0.4193683348117536	0.3405940348662937	-0.6585176766765524	0.4918962489123084	0.3742120330805065	-0.4133126851443293	0.34033399843709644	0.31130549711764666	-0.22928775269878843	0.2041995527272787	0.2852368195069705	-0.20207524730199505	0.19674992365212599	0.30909364262443895	-0.16383421999733325	0.21773551009016728	0.3377261819676591	-0.12916509692427247	0.07279892552572925	0.31337817926669304	-0.6726641966612742	-0.0035688537166160034	0.4208855819606906	-0.4338674312071589	0.11318896862264838	0.28873614563235894	-0.24436752208104479	0.20454686484006585	0.27914898486613626	-0.20628207614376026	0.20857355747500306	0.2829437384645855	-0.17903730668364803	0.20000418581371648	0.326040221342234	-0.12770515214460013
